<?xml version="1.0" encoding="UTF-8" standalone="no"?>
<!DOCTYPE svg PUBLIC "-//W3C//DTD SVG 1.1//EN"
 "http://www.w3.org/Graphics/SVG/1.1/DTD/svg11.dtd">
<!-- Generated by graphviz version 14.1.2 (20260124.0452)
 -->
<!-- Title: MindOps Pages: 1 -->
<svg width="832pt" height="473pt"
 viewBox="0.00 0.00 832.00 473.00" xmlns="http://www.w3.org/2000/svg" xmlns:xlink="http://www.w3.org/1999/xlink">
<g id="graph0" class="graph" transform="scale(1 1) rotate(0) translate(4 469.28)">
<title>MindOps</title>
<polygon fill="white" stroke="none" points="-4,4 -4,-469.28 827.75,-469.28 827.75,4 -4,4"/>
<text xml:space="preserve" text-anchor="middle" x="411.88" y="-444.18" font-family="Helvetica,sans-Serif" font-size="18.00">MindOps: Adaptive Observability + Autonomous Operations</text>
<g id="clust1" class="cluster">
<title>cluster_runtime</title>
<path fill="#e3f2fd" stroke="#90caf9" d="M20,-8C20,-8 247.25,-8 247.25,-8 253.25,-8 259.25,-14 259.25,-20 259.25,-20 259.25,-131 259.25,-131 259.25,-137 253.25,-143 247.25,-143 247.25,-143 20,-143 20,-143 14,-143 8,-137 8,-131 8,-131 8,-20 8,-20 8,-14 14,-8 20,-8"/>
<text xml:space="preserve" text-anchor="middle" x="133.62" y="-121.9" font-family="Helvetica,sans-Serif" font-size="18.00">Runtime + Signals</text>
</g>
<g id="clust2" class="cluster">
<title>cluster_collect</title>
<path fill="#e8f5e9" stroke="#a5d6a7" d="M292,-40C292,-40 803.75,-40 803.75,-40 809.75,-40 815.75,-46 815.75,-52 815.75,-52 815.75,-129 815.75,-129 815.75,-135 809.75,-141 803.75,-141 803.75,-141 292,-141 292,-141 286,-141 280,-135 280,-129 280,-129 280,-52 280,-52 280,-46 286,-40 292,-40"/>
<text xml:space="preserve" text-anchor="middle" x="547.88" y="-119.9" font-family="Helvetica,sans-Serif" font-size="18.00">Collection + Control</text>
</g>
<g id="clust3" class="cluster">
<title>cluster_intel</title>
<path fill="#fff3e0" stroke="#ffcc80" d="M567.12,-294C567.12,-294 795.5,-294 795.5,-294 801.5,-294 807.5,-300 807.5,-306 807.5,-306 807.5,-417 807.5,-417 807.5,-423 801.5,-429 795.5,-429 795.5,-429 567.12,-429 567.12,-429 561.12,-429 555.12,-423 555.12,-417 555.12,-417 555.12,-306 555.12,-306 555.12,-300 561.12,-294 567.12,-294"/>
<text xml:space="preserve" text-anchor="middle" x="681.31" y="-407.9" font-family="Helvetica,sans-Serif" font-size="18.00">Intelligence + RCA</text>
</g>
<g id="clust4" class="cluster">
<title>cluster_guard</title>
<path fill="#fce4ec" stroke="#f8bbd0" d="M528,-149C528,-149 688.75,-149 688.75,-149 694.75,-149 700.75,-155 700.75,-161 700.75,-161 700.75,-274 700.75,-274 700.75,-280 694.75,-286 688.75,-286 688.75,-286 528,-286 528,-286 522,-286 516,-280 516,-274 516,-274 516,-161 516,-161 516,-155 522,-149 528,-149"/>
<text xml:space="preserve" text-anchor="middle" x="608.38" y="-264.9" font-family="Helvetica,sans-Serif" font-size="18.00">Governance + Safety</text>
</g>
<!-- Workloads -->
<g id="node1" class="node">
<title>Workloads</title>
<path fill="#bbdefb" stroke="#37474f" stroke-width="1.2" d="M112.25,-108C112.25,-108 28,-108 28,-108 22,-108 16,-102 16,-96 16,-96 16,-82 16,-82 16,-76 22,-70 28,-70 28,-70 112.25,-70 112.25,-70 118.25,-70 124.25,-76 124.25,-82 124.25,-82 124.25,-96 124.25,-96 124.25,-102 118.25,-108 112.25,-108"/>
<text xml:space="preserve" text-anchor="middle" x="70.12" y="-90.7" font-family="Helvetica,sans-Serif" font-size="14.00" fill="#0d47a1">Workloads</text>
<text xml:space="preserve" text-anchor="middle" x="70.12" y="-75.7" font-family="Helvetica,sans-Serif" font-size="14.00" fill="#0d47a1">(Microservices)</text>
</g>
<!-- SDKs -->
<g id="node2" class="node">
<title>SDKs</title>
<path fill="#c5cae9" stroke="#37474f" stroke-width="1.2" d="M239.25,-106C239.25,-106 173,-106 173,-106 167,-106 161,-100 161,-94 161,-94 161,-82 161,-82 161,-76 167,-70 173,-70 173,-70 239.25,-70 239.25,-70 245.25,-70 251.25,-76 251.25,-82 251.25,-82 251.25,-94 251.25,-94 251.25,-100 245.25,-106 239.25,-106"/>
<text xml:space="preserve" text-anchor="middle" x="206.12" y="-82.2" font-family="Helvetica,sans-Serif" font-size="14.00" fill="#0d47a1">OTEL SDKs</text>
</g>
<!-- Workloads&#45;&gt;SDKs -->
<g id="edge1" class="edge">
<title>Workloads&#45;&gt;SDKs</title>
<path fill="none" stroke="#546e7a" stroke-width="1.1" d="M124.47,-88.6C133.26,-88.54 142.38,-88.47 151.18,-88.4"/>
<polygon fill="#546e7a" stroke="#546e7a" stroke-width="1.1" points="150.94,-91.2 158.92,-88.34 150.9,-85.6 150.94,-91.2"/>
</g>
<!-- ZTT -->
<g id="node4" class="node">
<title>ZTT</title>
<path fill="#c8e6c9" stroke="#37474f" stroke-width="1.2" d="M360.25,-106C360.25,-106 300,-106 300,-106 294,-106 288,-100 288,-94 288,-94 288,-80 288,-80 288,-74 294,-68 300,-68 300,-68 360.25,-68 360.25,-68 366.25,-68 372.25,-74 372.25,-80 372.25,-80 372.25,-94 372.25,-94 372.25,-100 366.25,-106 360.25,-106"/>
<text xml:space="preserve" text-anchor="middle" x="330.12" y="-88.7" font-family="Helvetica,sans-Serif" font-size="14.00" fill="#0d47a1">Zero‑Touch</text>
<text xml:space="preserve" text-anchor="middle" x="330.12" y="-73.7" font-family="Helvetica,sans-Serif" font-size="14.00" fill="#0d47a1">Telemetry</text>
</g>
<!-- SDKs&#45;&gt;ZTT -->
<g id="edge2" class="edge">
<title>SDKs&#45;&gt;ZTT</title>
<path fill="none" stroke="#546e7a" stroke-width="1.1" d="M251.51,-87.64C260.12,-87.57 269.2,-87.49 278.01,-87.42"/>
<polygon fill="#546e7a" stroke="#546e7a" stroke-width="1.1" points="277.77,-90.22 285.74,-87.36 277.72,-84.62 277.77,-90.22"/>
</g>
<!-- EBPF -->
<g id="node3" class="node">
<title>EBPF</title>
<path fill="#b3e5fc" stroke="#37474f" stroke-width="1.2" d="M106.25,-52C106.25,-52 34,-52 34,-52 28,-52 22,-46 22,-40 22,-40 22,-28 22,-28 22,-22 28,-16 34,-16 34,-16 106.25,-16 106.25,-16 112.25,-16 118.25,-22 118.25,-28 118.25,-28 118.25,-40 118.25,-40 118.25,-46 112.25,-52 106.25,-52"/>
<text xml:space="preserve" text-anchor="middle" x="70.12" y="-28.2" font-family="Helvetica,sans-Serif" font-size="14.00" fill="#0d47a1">eBPF Probes</text>
</g>
<!-- OTEL -->
<g id="node5" class="node">
<title>OTEL</title>
<path fill="#c5e1a5" stroke="#37474f" stroke-width="1.2" d="M472.25,-106C472.25,-106 420.25,-106 420.25,-106 414.25,-106 408.25,-100 408.25,-94 408.25,-94 408.25,-80 408.25,-80 408.25,-74 414.25,-68 420.25,-68 420.25,-68 472.25,-68 472.25,-68 478.25,-68 484.25,-74 484.25,-80 484.25,-80 484.25,-94 484.25,-94 484.25,-100 478.25,-106 472.25,-106"/>
<text xml:space="preserve" text-anchor="middle" x="446.25" y="-88.7" font-family="Helvetica,sans-Serif" font-size="14.00" fill="#0d47a1">OTEL</text>
<text xml:space="preserve" text-anchor="middle" x="446.25" y="-73.7" font-family="Helvetica,sans-Serif" font-size="14.00" fill="#0d47a1">Collectors</text>
</g>
<!-- EBPF&#45;&gt;OTEL -->
<g id="edge4" class="edge">
<title>EBPF&#45;&gt;OTEL</title>
<path fill="none" stroke="#546e7a" stroke-width="1.1" d="M118.7,-33.82C178.59,-34.53 284.29,-38.91 372.25,-59 381.09,-61.02 390.29,-63.89 399.05,-67.03"/>
<polygon fill="#546e7a" stroke="#546e7a" stroke-width="1.1" points="397.96,-69.61 406.44,-69.8 399.93,-64.37 397.96,-69.61"/>
</g>
<!-- ZTT&#45;&gt;OTEL -->
<g id="edge3" class="edge">
<title>ZTT&#45;&gt;OTEL</title>
<path fill="none" stroke="#546e7a" stroke-width="1.1" d="M372.65,-87C380.98,-87 389.8,-87 398.3,-87"/>
<polygon fill="#546e7a" stroke="#546e7a" stroke-width="1.1" points="398.07,-89.8 406.07,-87 398.07,-84.2 398.07,-89.8"/>
</g>
<!-- Budget -->
<g id="node6" class="node">
<title>Budget</title>
<path fill="#dcedc8" stroke="#37474f" stroke-width="1.2" d="M648.12,-86C648.12,-86 567.62,-86 567.62,-86 561.62,-86 555.62,-80 555.62,-74 555.62,-74 555.62,-60 555.62,-60 555.62,-54 561.62,-48 567.62,-48 567.62,-48 648.12,-48 648.12,-48 654.12,-48 660.12,-54 660.12,-60 660.12,-60 660.12,-74 660.12,-74 660.12,-80 654.12,-86 648.12,-86"/>
<text xml:space="preserve" text-anchor="middle" x="607.88" y="-68.7" font-family="Helvetica,sans-Serif" font-size="14.00" fill="#0d47a1">Telemetry</text>
<text xml:space="preserve" text-anchor="middle" x="607.88" y="-53.7" font-family="Helvetica,sans-Serif" font-size="14.00" fill="#0d47a1">Budget Engine</text>
</g>
<!-- OTEL&#45;&gt;Budget -->
<g id="edge5" class="edge">
<title>OTEL&#45;&gt;Budget</title>
<path fill="none" stroke="#546e7a" stroke-width="1.1" d="M484.67,-82.31C502.89,-80.03 525.27,-77.23 545.87,-74.64"/>
<polygon fill="#546e7a" stroke="#546e7a" stroke-width="1.1" points="545.94,-77.46 553.53,-73.68 545.25,-71.9 545.94,-77.46"/>
</g>
<!-- SLO -->
<g id="node8" class="node">
<title>SLO</title>
<path fill="#ffe0b2" stroke="#37474f" stroke-width="1.2" d="M640.62,-394C640.62,-394 575.12,-394 575.12,-394 569.12,-394 563.12,-388 563.12,-382 563.12,-382 563.12,-370 563.12,-370 563.12,-364 569.12,-358 575.12,-358 575.12,-358 640.62,-358 640.62,-358 646.62,-358 652.62,-364 652.62,-370 652.62,-370 652.62,-382 652.62,-382 652.62,-388 646.62,-394 640.62,-394"/>
<text xml:space="preserve" text-anchor="middle" x="607.88" y="-370.2" font-family="Helvetica,sans-Serif" font-size="14.00" fill="#0d47a1">SLO Copilot</text>
</g>
<!-- OTEL&#45;&gt;SLO -->
<g id="edge10" class="edge">
<title>OTEL&#45;&gt;SLO</title>
<path fill="none" stroke="#546e7a" stroke-width="1.1" d="M449.84,-106.29C457.51,-160.68 481.73,-313.61 516,-349 526.05,-359.38 539.89,-365.81 553.74,-369.79"/>
<polygon fill="#546e7a" stroke="#546e7a" stroke-width="1.1" points="552.75,-372.43 561.19,-371.66 554.11,-367 552.75,-372.43"/>
</g>
<!-- Topo -->
<g id="node10" class="node">
<title>Topo</title>
<path fill="#ffd54f" stroke="#37474f" stroke-width="1.2" d="M639.12,-340C639.12,-340 576.62,-340 576.62,-340 570.62,-340 564.62,-334 564.62,-328 564.62,-328 564.62,-314 564.62,-314 564.62,-308 570.62,-302 576.62,-302 576.62,-302 639.12,-302 639.12,-302 645.12,-302 651.12,-308 651.12,-314 651.12,-314 651.12,-328 651.12,-328 651.12,-334 645.12,-340 639.12,-340"/>
<text xml:space="preserve" text-anchor="middle" x="607.88" y="-322.7" font-family="Helvetica,sans-Serif" font-size="14.00" fill="#0d47a1">Topology</text>
<text xml:space="preserve" text-anchor="middle" x="607.88" y="-307.7" font-family="Helvetica,sans-Serif" font-size="14.00" fill="#0d47a1">Graph RCA</text>
</g>
<!-- OTEL&#45;&gt;Topo -->
<g id="edge12" class="edge">
<title>OTEL&#45;&gt;Topo</title>
<path fill="none" stroke="#546e7a" stroke-width="1.1" d="M448.3,-106.41C451.49,-146.34 464.36,-238.24 516,-290 526.53,-300.55 540.79,-307.51 554.89,-312.11"/>
<polygon fill="#546e7a" stroke="#546e7a" stroke-width="1.1" points="554.03,-314.77 562.49,-314.33 555.6,-309.4 554.03,-314.77"/>
</g>
<!-- PII -->
<g id="node11" class="node">
<title>PII</title>
<path fill="#f8bbd0" stroke="#37474f" stroke-width="1.2" d="M632,-251C632,-251 583.75,-251 583.75,-251 577.75,-251 571.75,-245 571.75,-239 571.75,-239 571.75,-225 571.75,-225 571.75,-219 577.75,-213 583.75,-213 583.75,-213 632,-213 632,-213 638,-213 644,-219 644,-225 644,-225 644,-239 644,-239 644,-245 638,-251 632,-251"/>
<text xml:space="preserve" text-anchor="middle" x="607.88" y="-233.7" font-family="Helvetica,sans-Serif" font-size="14.00" fill="#0d47a1">PII</text>
<text xml:space="preserve" text-anchor="middle" x="607.88" y="-218.7" font-family="Helvetica,sans-Serif" font-size="14.00" fill="#0d47a1">Guardrail</text>
</g>
<!-- OTEL&#45;&gt;PII -->
<g id="edge8" class="edge">
<title>OTEL&#45;&gt;PII</title>
<path fill="none" stroke="#546e7a" stroke-width="1.1" d="M453.51,-106.16C462.95,-132.1 483.29,-178.13 516,-204 529.2,-214.44 546.31,-221.01 562.11,-225.13"/>
<polygon fill="#546e7a" stroke="#546e7a" stroke-width="1.1" points="561.18,-227.79 569.61,-226.9 562.47,-222.34 561.18,-227.79"/>
</g>
<!-- RL -->
<g id="node7" class="node">
<title>RL</title>
<path fill="#a5d6a7" stroke="#37474f" stroke-width="1.2" d="M795.75,-106C795.75,-106 744.5,-106 744.5,-106 738.5,-106 732.5,-100 732.5,-94 732.5,-94 732.5,-80 732.5,-80 732.5,-74 738.5,-68 744.5,-68 744.5,-68 795.75,-68 795.75,-68 801.75,-68 807.75,-74 807.75,-80 807.75,-80 807.75,-94 807.75,-94 807.75,-100 801.75,-106 795.75,-106"/>
<text xml:space="preserve" text-anchor="middle" x="770.12" y="-88.7" font-family="Helvetica,sans-Serif" font-size="14.00" fill="#0d47a1">RL Policy</text>
<text xml:space="preserve" text-anchor="middle" x="770.12" y="-73.7" font-family="Helvetica,sans-Serif" font-size="14.00" fill="#0d47a1">Optimizer</text>
</g>
<!-- Budget&#45;&gt;RL -->
<g id="edge6" class="edge">
<title>Budget&#45;&gt;RL</title>
<path fill="none" stroke="#546e7a" stroke-width="1.1" d="M660.46,-73.44C680.42,-75.93 703.1,-78.76 722.55,-81.19"/>
<polygon fill="#546e7a" stroke="#546e7a" stroke-width="1.1" points="722.17,-83.96 730.46,-82.17 722.87,-78.4 722.17,-83.96"/>
</g>
<!-- RL&#45;&gt;OTEL -->
<g id="edge7" class="edge">
<title>RL&#45;&gt;OTEL</title>
<path fill="none" stroke="#546e7a" stroke-width="1.1" d="M731.93,-92.15C721.84,-93.33 710.89,-94.41 700.75,-95 618.78,-99.78 597.97,-99.75 516,-95 508.83,-94.58 501.26,-93.93 493.87,-93.16"/>
<polygon fill="#546e7a" stroke="#546e7a" stroke-width="1.1" points="494.56,-90.42 486.3,-92.33 493.95,-95.99 494.56,-90.42"/>
</g>
<!-- SLO&#45;&gt;RL -->
<g id="edge14" class="edge">
<title>SLO&#45;&gt;RL</title>
<path fill="none" stroke="#8d6e63" stroke-width="1.1" stroke-dasharray="5,2" d="M652.96,-372.28C669.94,-368.71 688.25,-361.89 700.75,-349 733.23,-315.52 756.44,-176.5 765.24,-115.69"/>
<polygon fill="#8d6e63" stroke="#8d6e63" stroke-width="1.1" points="767.98,-116.26 766.34,-107.94 762.44,-115.47 767.98,-116.26"/>
</g>
<!-- Gate -->
<g id="node12" class="node">
<title>Gate</title>
<path fill="#f48fb1" stroke="#37474f" stroke-width="1.2" d="M644.38,-195C644.38,-195 571.38,-195 571.38,-195 565.38,-195 559.38,-189 559.38,-183 559.38,-183 559.38,-169 559.38,-169 559.38,-163 565.38,-157 571.38,-157 571.38,-157 644.38,-157 644.38,-157 650.38,-157 656.38,-163 656.38,-169 656.38,-169 656.38,-183 656.38,-183 656.38,-189 650.38,-195 644.38,-195"/>
<text xml:space="preserve" text-anchor="middle" x="607.88" y="-177.7" font-family="Helvetica,sans-Serif" font-size="14.00" fill="#0d47a1">CI / Guardrail</text>
<text xml:space="preserve" text-anchor="middle" x="607.88" y="-162.7" font-family="Helvetica,sans-Serif" font-size="14.00" fill="#0d47a1">Gates</text>
</g>
<!-- SLO&#45;&gt;Gate -->
<g id="edge11" class="edge">
<title>SLO&#45;&gt;Gate</title>
<path fill="none" stroke="#546e7a" stroke-width="1.1" d="M562.69,-374.23C539.14,-370.6 512.68,-361.56 500.12,-340 485.92,-315.61 485.92,-237.39 500.12,-213 510.4,-195.37 529.89,-185.94 549.5,-180.96"/>
<polygon fill="#546e7a" stroke="#546e7a" stroke-width="1.1" points="549.95,-183.73 557.16,-179.28 548.75,-178.26 549.95,-183.73"/>
</g>
<!-- TRAG -->
<g id="node9" class="node">
<title>TRAG</title>
<path fill="#ffccbc" stroke="#37474f" stroke-width="1.2" d="M787.5,-340C787.5,-340 752.75,-340 752.75,-340 746.75,-340 740.75,-334 740.75,-328 740.75,-328 740.75,-314 740.75,-314 740.75,-308 746.75,-302 752.75,-302 752.75,-302 787.5,-302 787.5,-302 793.5,-302 799.5,-308 799.5,-314 799.5,-314 799.5,-328 799.5,-328 799.5,-334 793.5,-340 787.5,-340"/>
<text xml:space="preserve" text-anchor="middle" x="770.12" y="-322.7" font-family="Helvetica,sans-Serif" font-size="14.00" fill="#0d47a1">T‑RAG</text>
<text xml:space="preserve" text-anchor="middle" x="770.12" y="-307.7" font-family="Helvetica,sans-Serif" font-size="14.00" fill="#0d47a1">RCA</text>
</g>
<!-- Topo&#45;&gt;TRAG -->
<g id="edge13" class="edge">
<title>Topo&#45;&gt;TRAG</title>
<path fill="none" stroke="#546e7a" stroke-width="1.1" d="M651.4,-321C676.17,-321 707.15,-321 731.11,-321"/>
<polygon fill="#546e7a" stroke="#546e7a" stroke-width="1.1" points="730.91,-323.8 738.91,-321 730.91,-318.2 730.91,-323.8"/>
</g>
<!-- PII&#45;&gt;TRAG -->
<g id="edge9" class="edge">
<title>PII&#45;&gt;TRAG</title>
<path fill="none" stroke="#546e7a" stroke-width="1.1" d="M644.04,-251.53C670.06,-265.98 705.44,-285.63 731.93,-300.34"/>
<polygon fill="#546e7a" stroke="#546e7a" stroke-width="1.1" points="730.39,-302.69 738.74,-304.12 733.11,-297.79 730.39,-302.69"/>
</g>
<!-- Orchestrator -->
<g id="node13" class="node">
<title>Orchestrator</title>
<path fill="#e1bee7" stroke="#6a1b9a" stroke-width="1.2" d="M240,-395C240,-395 172.25,-395 172.25,-395 166.25,-395 160.25,-389 160.25,-383 160.25,-383 160.25,-369 160.25,-369 160.25,-363 166.25,-357 172.25,-357 172.25,-357 240,-357 240,-357 246,-357 252,-363 252,-369 252,-369 252,-383 252,-383 252,-389 246,-395 240,-395"/>
<text xml:space="preserve" text-anchor="middle" x="206.12" y="-377.7" font-family="Helvetica,sans-Serif" font-size="14.00" fill="#4a148c">MindOps</text>
<text xml:space="preserve" text-anchor="middle" x="206.12" y="-362.7" font-family="Helvetica,sans-Serif" font-size="14.00" fill="#4a148c">Orchestrator</text>
</g>
<!-- Orchestrator&#45;&gt;ZTT -->
<g id="edge15" class="edge">
<title>Orchestrator&#45;&gt;ZTT</title>
<path fill="none" stroke="#6a1b9a" stroke-width="1.1" stroke-dasharray="5,2" d="M215.32,-356.59C236.42,-306.61 292.66,-173.37 317.3,-115.02"/>
<polygon fill="#6a1b9a" stroke="#6a1b9a" stroke-width="1.1" points="319.79,-116.32 320.32,-107.86 314.63,-114.14 319.79,-116.32"/>
</g>
<!-- Orchestrator&#45;&gt;SLO -->
<g id="edge16" class="edge">
<title>Orchestrator&#45;&gt;SLO</title>
<path fill="none" stroke="#6a1b9a" stroke-width="1.1" stroke-dasharray="5,2" d="M252.59,-376C326.92,-376 474.1,-376 553.35,-376"/>
<polygon fill="#6a1b9a" stroke="#6a1b9a" stroke-width="1.1" points="553.01,-378.8 561.01,-376 553.01,-373.2 553.01,-378.8"/>
</g>
<!-- Orchestrator&#45;&gt;TRAG -->
<g id="edge17" class="edge">
<title>Orchestrator&#45;&gt;TRAG</title>
<path fill="none" stroke="#6a1b9a" stroke-width="1.1" stroke-dasharray="5,2" d="M252.38,-392.07C342.64,-421.29 549.37,-473.87 700.75,-403 724.59,-391.84 743.01,-367.83 754.7,-348.67"/>
<polygon fill="#6a1b9a" stroke="#6a1b9a" stroke-width="1.1" points="757,-350.29 758.61,-341.97 752.16,-347.47 757,-350.29"/>
</g>
</g>
</svg>
